# This file uses centimeters as units for non-parametric coordinates.

mtllib exitDoorClose.mtl
g skinCluster1Set tweakSet1
v -0.337314 0.212870 -1.664135
v 0.000000 22.293428 -1.697977
v 0.325200 0.212870 -1.666545
v 0.649788 22.293428 -1.568726
v 0.938205 0.212870 -1.415238
v 1.200651 22.293428 -1.200651
v 1.408376 0.212870 -0.948474
v 1.568726 22.293428 -0.649788
v 1.664135 0.212870 -0.337313
v 1.697977 22.293428 0.000000
v 1.666545 0.212870 0.325200
v 1.568726 22.293428 0.649788
v 1.415238 0.212870 0.938205
v 1.200651 22.293428 1.200651
v 0.948474 0.212870 1.408376
v 0.649788 22.293428 1.568726
v 0.337314 0.212870 1.664135
v 0.000000 22.293428 1.697977
v -0.325199 0.212870 1.666545
v -0.649787 22.293428 1.568726
v -0.938204 0.212870 1.415238
v -1.200651 22.293428 1.200652
v -1.408376 0.212870 0.948474
v -1.568726 22.293428 0.649788
v -1.664135 0.212870 0.337314
v -1.697977 22.293428 -0.000000
v -1.666545 0.212870 -0.325200
v -1.568726 22.293428 -0.649788
v -1.415238 0.212870 -0.938205
v -1.200651 22.293428 -1.200652
v -0.948473 0.212870 -1.408377
v -0.649787 22.293428 -1.568727
v 0.000000 22.080469 -1.697977
v 0.649788 22.080469 -1.568726
v 1.200651 22.080469 -1.200651
v 1.568726 22.080469 -0.649788
v 1.697977 22.080469 0.000000
v 1.568726 22.080469 0.649788
v 1.200651 22.080469 1.200651
v 0.649788 22.080469 1.568726
v 0.000000 22.080469 1.697977
v -0.649787 22.080469 1.568726
v -1.200651 22.080469 1.200652
v -1.568726 22.080469 0.649788
v -1.697977 22.080469 -0.000000
v -1.568726 22.080469 -0.649788
v -1.200651 22.080469 -1.200652
v -0.649787 22.080469 -1.568727
v 0.317187 0.568964 -1.668088
v 0.931392 0.568964 -1.419730
v 1.403802 0.568964 -0.955231
v 1.662495 0.568964 -0.345307
v 1.668088 0.568964 0.317187
v 1.419730 0.568964 0.931393
v 0.955231 0.568964 1.403802
v 0.345307 0.568964 1.662495
v -0.317187 0.568964 1.668088
v -0.931392 0.568964 1.419731
v -1.403802 0.568964 0.955231
v -1.662495 0.568964 0.345307
v -1.668088 0.568964 -0.317188
v -1.419730 0.568964 -0.931393
v -0.955231 0.568964 -1.403802
v -0.345307 0.568964 -1.662495
vt 0.260396 0.010024
vt 0.559162 0.981506
vt 0.857927 0.025847
vt 0.917680 0.990966
vt 0.618915 0.990966
vt 0.260396 0.981506
vt 0.379902 0.010024
vt 0.798174 0.981506
vt 0.140890 0.025847
vt 0.081137 0.990966
vt 0.738421 0.990966
vt 0.439655 0.025847
vt 0.499408 0.010024
vt 0.081137 0.981506
vt 0.200643 0.990966
vt 0.379902 0.981506
vt 0.678668 0.025847
vt 0.917680 0.010024
vt 0.618914 0.010024
vt 0.320149 0.981506
vt 0.320149 0.990966
vt 0.977433 0.981506
vt 0.618915 0.981506
vt 0.917680 0.025847
vt 0.081137 0.010024
vt 0.738421 0.010024
vt 0.499408 0.025847
vt 0.439655 0.990966
vt 0.857927 0.981506
vt 0.200643 0.025847
vt 0.200643 0.010024
vt 0.439655 0.981506
vt 0.738421 0.025847
vt 0.857927 0.990966
vt 0.559162 0.990966
vt 0.140890 0.981506
vt 0.320149 0.010024
vt 0.678668 0.981506
vt 0.977433 0.025847
vt 0.977433 0.990966
vt 0.021384 0.025847
vt 0.678668 0.990966
vt 0.021384 0.990966
vt 0.320149 0.025847
vt 0.439655 0.010024
vt 0.917680 0.981506
vt 0.260396 0.025847
vt 0.140890 0.990966
vt 0.798174 0.990966
vt 0.559161 0.025847
vt 0.857927 0.010024
vt 0.559161 0.010024
vt 0.200643 0.981506
vt 0.260396 0.990966
vt 0.499408 0.981506
vt 0.798174 0.025847
vt 0.021384 0.010024
vt 0.977433 0.010024
vt 0.678668 0.010024
vt 0.379902 0.025847
vt 0.379902 0.990966
vt 0.738421 0.981506
vt 0.081137 0.025847
vt 0.140890 0.010024
vt 0.798174 0.010024
vt 0.618914 0.025847
vt 0.499408 0.990966
vt 0.021384 0.981506
vn 0.000000 0.000000 -1.000000
vn 0.382683 0.001498 -0.923879
vn 0.000000 0.001498 -0.999999
vn 0.382685 0.000000 -0.923879
vn 0.707106 0.001498 -0.707106
vn 0.707104 0.000000 -0.707110
vn 0.923879 0.001498 -0.382683
vn 0.923879 0.000000 -0.382685
vn 0.999999 0.001498 -0.000000
vn 1.000000 0.000000 -0.000002
vn 0.923879 0.001498 0.382683
vn 0.923881 0.000000 0.382681
vn 0.707106 0.001498 0.707106
vn 0.707107 0.000000 0.707106
vn 0.382683 0.001498 0.923878
vn 0.382682 0.000000 0.923880
vn 0.000000 0.001498 0.999999
vn 0.000000 0.000000 1.000000
vn -0.382683 0.001498 0.923879
vn -0.382680 0.000000 0.923881
vn -0.707106 0.001498 0.707106
vn -0.707107 0.000000 0.707107
vn -0.923878 0.001498 0.382683
vn -0.923880 0.000000 0.382681
vn -0.999999 0.001498 0.000000
vn -1.000000 -0.000000 0.000002
vn -0.923878 0.001498 -0.382683
vn -0.923880 0.000000 -0.382683
vn -0.707106 0.001498 -0.707106
vn -0.707105 0.000000 -0.707109
vn -0.382683 0.001498 -0.923878
vn -0.382685 0.000000 -0.923879
vn -0.203382 -0.001466 -0.979098
vn -0.562585 -0.001466 -0.826738
vn -0.836140 -0.001466 -0.548514
vn -0.982400 -0.001466 -0.186784
vn -0.979098 -0.001466 0.203382
vn -0.826738 -0.001466 0.562585
vn -0.548514 -0.001466 0.836140
vn -0.186784 -0.001466 0.982400
vn 0.203382 -0.001466 0.979098
vn 0.562585 -0.001466 0.826738
vn 0.836140 -0.001466 0.548514
vn 0.982400 -0.001466 0.186784
vn 0.979098 -0.001466 -0.203382
vn 0.826738 -0.001466 -0.562585
vn 0.548514 -0.001466 -0.836140
vn 0.186784 -0.001466 -0.982400
vn -0.197508 -0.001363 -0.980300
vn 0.192671 -0.001363 -0.981263
vn 0.553517 -0.001363 -0.832837
vn 0.830096 -0.001363 -0.557619
vn 0.980300 -0.001362 -0.197508
vn 0.981263 -0.001364 0.192671
vn 0.832837 -0.001363 0.553517
vn 0.557619 -0.001363 0.830096
vn 0.197509 -0.001363 0.980300
vn -0.192670 -0.001364 0.981263
vn -0.553517 -0.001363 0.832837
vn -0.830096 -0.001363 0.557619
vn -0.980300 -0.001362 0.197508
vn -0.981263 -0.001364 -0.192671
vn -0.832836 -0.001363 -0.553517
vn -0.557619 -0.001363 -0.830096
s 1
g Shield
usemtl ShieldSG
f 2/21/1 34/6/2 33/20/3
f 4/54/4 35/53/5 34/6/2
f 6/15/6 36/36/7 35/53/5
f 8/48/8 37/14/9 36/36/7
f 10/10/10 38/68/11 37/14/9
f 12/40/12 39/46/13 38/22/11
f 14/4/14 40/29/15 39/46/13
f 16/34/16 41/8/17 40/29/15
f 18/49/18 42/62/19 41/8/17
f 20/11/20 43/38/21 42/62/19
f 22/42/22 44/23/23 43/38/21
f 24/5/24 45/2/25 44/23/23
f 26/35/26 46/55/27 45/2/25
f 28/67/28 47/32/29 46/55/27
f 30/28/30 48/16/31 47/32/29
f 32/61/32 33/20/3 48/16/31
f 48/16/31 64/44/33 63/60/34
f 47/32/29 63/60/34 62/12/35
f 46/55/27 62/12/35 61/27/36
f 45/2/25 61/27/36 60/50/37
f 44/23/23 60/50/37 59/66/38
f 43/38/21 59/66/38 58/17/39
f 42/62/19 58/17/39 57/33/40
f 41/8/17 57/33/40 56/56/41
f 40/29/15 56/56/41 55/3/42
f 39/46/13 55/3/42 54/24/43
f 38/22/11 54/24/43 53/39/44
f 37/14/9 53/41/44 52/63/45
f 36/36/7 52/63/45 51/9/46
f 35/53/5 51/9/46 50/30/47
f 34/6/2 50/30/47 49/47/48
f 33/20/3 49/47/48 64/44/33
f 1/37/49 49/47/48 3/1/50
f 3/1/50 50/30/47 5/31/51
f 5/31/51 51/9/46 7/64/52
f 7/64/52 52/63/45 9/25/53
f 9/25/53 53/41/44 11/57/54
f 11/58/54 54/24/43 13/18/55
f 13/18/55 55/3/42 15/51/56
f 15/51/56 56/56/41 17/65/57
f 17/65/57 57/33/40 19/26/58
f 19/26/58 58/17/39 21/59/59
f 21/59/59 59/66/38 23/19/60
f 23/19/60 60/50/37 25/52/61
f 25/52/61 61/27/36 27/13/62
f 27/13/62 62/12/35 29/45/63
f 29/45/63 63/60/34 31/7/64
f 31/7/64 64/44/33 1/37/49
f 2/21/1 4/54/4 34/6/2
f 4/54/4 6/15/6 35/53/5
f 6/15/6 8/48/8 36/36/7
f 8/48/8 10/10/10 37/14/9
f 10/10/10 12/43/12 38/68/11
f 12/40/12 14/4/14 39/46/13
f 14/4/14 16/34/16 40/29/15
f 16/34/16 18/49/18 41/8/17
f 18/49/18 20/11/20 42/62/19
f 20/11/20 22/42/22 43/38/21
f 22/42/22 24/5/24 44/23/23
f 24/5/24 26/35/26 45/2/25
f 26/35/26 28/67/28 46/55/27
f 28/67/28 30/28/30 47/32/29
f 30/28/30 32/61/32 48/16/31
f 32/61/32 2/21/1 33/20/3
f 48/16/31 33/20/3 64/44/33
f 47/32/29 48/16/31 63/60/34
f 46/55/27 47/32/29 62/12/35
f 45/2/25 46/55/27 61/27/36
f 44/23/23 45/2/25 60/50/37
f 43/38/21 44/23/23 59/66/38
f 42/62/19 43/38/21 58/17/39
f 41/8/17 42/62/19 57/33/40
f 40/29/15 41/8/17 56/56/41
f 39/46/13 40/29/15 55/3/42
f 38/22/11 39/46/13 54/24/43
f 37/14/9 38/68/11 53/41/44
f 36/36/7 37/14/9 52/63/45
f 35/53/5 36/36/7 51/9/46
f 34/6/2 35/53/5 50/30/47
f 33/20/3 34/6/2 49/47/48
f 1/37/49 64/44/33 49/47/48
f 3/1/50 49/47/48 50/30/47
f 5/31/51 50/30/47 51/9/46
f 7/64/52 51/9/46 52/63/45
f 9/25/53 52/63/45 53/41/44
f 11/58/54 53/39/44 54/24/43
f 13/18/55 54/24/43 55/3/42
f 15/51/56 55/3/42 56/56/41
f 17/65/57 56/56/41 57/33/40
f 19/26/58 57/33/40 58/17/39
f 21/59/59 58/17/39 59/66/38
f 23/19/60 59/66/38 60/50/37
f 25/52/61 60/50/37 61/27/36
f 27/13/62 61/27/36 62/12/35
f 29/45/63 62/12/35 63/60/34
f 31/7/64 63/60/34 64/44/33
